<svg xmlns="http://www.w3.org/2000/svg" xmlns:xlink="http://www.w3.org/1999/xlink" width="500" zoomAndPan="magnify" viewBox="0 0 375 374.999991" height="500" preserveAspectRatio="xMidYMid meet" version="1.0"><defs><g/></defs><rect x="-37.5" width="450" fill="#ffffff" y="-37.499999" height="449.999989" fill-opacity="1"/><rect x="-37.5" width="450" fill="#f2f1ee" y="-37.499999" height="449.999989" fill-opacity="1"/><g fill="#000000" fill-opacity="1"><g transform="translate(132.723188, 200.25748)"><g><path d="M 34.640625 -79.328125 C 29.710938 -77.941406 25.671875 -75.554688 22.515625 -72.171875 C 19.359375 -68.785156 16.988281 -64.820312 15.40625 -60.28125 C 13.832031 -55.738281 12.988281 -51.003906 12.875 -46.078125 C 12.757812 -41.148438 13.238281 -36.488281 14.3125 -32.09375 C 15.550781 -27.707031 17.457031 -23.414062 20.03125 -19.21875 C 22.613281 -15.03125 25.710938 -11.359375 29.328125 -8.203125 C 32.941406 -5.046875 36.960938 -2.8125 41.390625 -1.5 C 45.816406 -0.1875 50.492188 -0.1875 55.421875 -1.5 C 59.734375 -2.65625 63.332031 -4.597656 66.21875 -7.328125 C 69.101562 -10.066406 71.390625 -13.300781 73.078125 -17.03125 C 74.773438 -20.757812 75.894531 -24.703125 76.4375 -28.859375 L 76.4375 -14.203125 C 71.207031 -7.578125 64.28125 -3.148438 55.65625 -0.921875 C 50.113281 0.691406 44.6875 1.132812 39.375 0.40625 C 34.0625 -0.320312 29.132812 -2.035156 24.59375 -4.734375 C 20.050781 -7.429688 16.101562 -10.914062 12.75 -15.1875 C 9.40625 -19.457031 6.960938 -24.328125 5.421875 -29.796875 C 4.035156 -35.253906 3.726562 -40.660156 4.5 -46.015625 C 5.269531 -51.367188 6.984375 -56.375 9.640625 -61.03125 C 12.296875 -65.6875 15.722656 -69.664062 19.921875 -72.96875 C 24.117188 -76.28125 28.945312 -78.671875 34.40625 -80.140625 C 39.5625 -81.523438 44.160156 -82.117188 48.203125 -81.921875 C 52.242188 -81.734375 55.765625 -81.0625 58.765625 -79.90625 C 61.773438 -78.75 64.28125 -77.457031 66.28125 -76.03125 C 68.28125 -74.613281 69.757812 -73.363281 70.71875 -72.28125 C 71.6875 -71.207031 72.171875 -70.671875 72.171875 -70.671875 L 72.171875 -58.65625 C 72.171875 -58.65625 71.820312 -59.304688 71.125 -60.609375 C 70.4375 -61.921875 69.398438 -63.554688 68.015625 -65.515625 C 66.628906 -67.484375 64.894531 -69.503906 62.8125 -71.578125 C 60.738281 -73.660156 58.316406 -75.507812 55.546875 -77.125 C 52.773438 -78.75 49.65625 -79.8125 46.1875 -80.3125 C 42.71875 -80.8125 38.867188 -80.484375 34.640625 -79.328125 Z M 34.640625 -79.328125 "/></g></g></g><g fill="#000000" fill-opacity="1"><g transform="translate(167.646878, 230.992492)"><g><path d="M 60.15625 0 L 47.109375 -31.296875 C 42.179688 -30.828125 38.117188 -29.820312 34.921875 -28.28125 C 31.734375 -26.75 29.15625 -24.882812 27.1875 -22.6875 C 25.226562 -20.5 23.648438 -18.207031 22.453125 -15.8125 C 21.265625 -13.425781 20.207031 -11.195312 19.28125 -9.125 C 18.207031 -6.269531 17.035156 -3.898438 15.765625 -2.015625 C 14.492188 -0.128906 12.550781 0.769531 9.9375 0.6875 C 9.625 0.613281 9.332031 0.535156 9.0625 0.453125 C 8.789062 0.378906 8.460938 0.191406 8.078125 -0.109375 C 4.921875 -1.492188 3.648438 -4.84375 4.265625 -10.15625 C 4.578125 -12.695312 5.132812 -15.566406 5.9375 -18.765625 C 6.75 -21.960938 7.847656 -25.40625 9.234375 -29.09375 C 11.316406 -34.632812 13.757812 -40.503906 16.5625 -46.703125 C 19.375 -52.898438 22.335938 -59.019531 25.453125 -65.0625 C 28.578125 -71.101562 31.601562 -76.585938 34.53125 -81.515625 L 35.328125 -81.515625 L 69.859375 0 Z M 46.765625 -32.09375 L 29.796875 -71.59375 C 26.253906 -64.8125 22.691406 -57.664062 19.109375 -50.15625 C 15.523438 -42.65625 12.503906 -35.554688 10.046875 -28.859375 C 8.660156 -25.171875 7.5625 -21.75 6.75 -18.59375 C 5.945312 -15.4375 5.390625 -12.625 5.078125 -10.15625 C 5.003906 -7.769531 5.195312 -5.75 5.65625 -4.09375 C 6.113281 -2.4375 7.035156 -1.378906 8.421875 -0.921875 C 8.804688 -0.847656 9.09375 -0.769531 9.28125 -0.6875 C 9.476562 -0.613281 9.734375 -0.5 10.046875 -0.34375 C 12.359375 -0.1875 14.085938 -0.992188 15.234375 -2.765625 C 16.390625 -4.535156 17.429688 -6.734375 18.359375 -9.359375 C 19.285156 -11.515625 20.363281 -13.800781 21.59375 -16.21875 C 22.820312 -18.644531 24.457031 -20.972656 26.5 -23.203125 C 28.539062 -25.441406 31.175781 -27.367188 34.40625 -28.984375 C 37.644531 -30.597656 41.765625 -31.632812 46.765625 -32.09375 Z M 46.765625 -32.09375 "/></g></g></g></svg>