<svg xmlns="http://www.w3.org/2000/svg" xmlns:xlink="http://www.w3.org/1999/xlink" width="132" zoomAndPan="magnify" viewBox="0 0 98.88 128.249994" height="171" preserveAspectRatio="xMidYMid meet" version="1.0"><defs><g/><clipPath id="4fc221d5b3"><rect x="0" width="48" y="0" height="68"/></clipPath><clipPath id="e926b5b5eb"><rect x="0" width="45" y="0" height="67"/></clipPath></defs><g transform="matrix(1, 0, 0, 1, 17, 21)"><g clip-path="url(#4fc221d5b3)"><g fill="#000000" fill-opacity="1"><g transform="translate(0.508445, 50.115597)"><g><path d="M 20.078125 -45.96875 C 17.222656 -45.164062 14.878906 -43.78125 13.046875 -41.8125 C 11.210938 -39.851562 9.835938 -37.554688 8.921875 -34.921875 C 8.015625 -32.296875 7.523438 -29.550781 7.453125 -26.6875 C 7.390625 -23.832031 7.671875 -21.132812 8.296875 -18.59375 C 9.003906 -16.050781 10.101562 -13.566406 11.59375 -11.140625 C 13.09375 -8.710938 14.890625 -6.582031 16.984375 -4.75 C 19.085938 -2.914062 21.421875 -1.617188 23.984375 -0.859375 C 26.546875 -0.109375 29.253906 -0.113281 32.109375 -0.875 C 34.609375 -1.539062 36.691406 -2.664062 38.359375 -4.25 C 40.035156 -5.832031 41.363281 -7.703125 42.34375 -9.859375 C 43.332031 -12.023438 43.984375 -14.3125 44.296875 -16.71875 L 44.296875 -8.234375 C 41.265625 -4.390625 37.25 -1.820312 32.25 -0.53125 C 29.039062 0.40625 25.894531 0.660156 22.8125 0.234375 C 19.738281 -0.191406 16.882812 -1.179688 14.25 -2.734375 C 11.613281 -4.296875 9.328125 -6.316406 7.390625 -8.796875 C 5.453125 -11.273438 4.035156 -14.097656 3.140625 -17.265625 C 2.335938 -20.429688 2.160156 -23.5625 2.609375 -26.65625 C 3.054688 -29.757812 4.046875 -32.660156 5.578125 -35.359375 C 7.117188 -38.054688 9.101562 -40.363281 11.53125 -42.28125 C 13.96875 -44.195312 16.769531 -45.582031 19.9375 -46.4375 C 22.925781 -47.238281 25.59375 -47.582031 27.9375 -47.46875 C 30.28125 -47.351562 32.320312 -46.960938 34.0625 -46.296875 C 35.800781 -45.628906 37.25 -44.878906 38.40625 -44.046875 C 39.5625 -43.222656 40.414062 -42.5 40.96875 -41.875 C 41.53125 -41.257812 41.8125 -40.953125 41.8125 -40.953125 L 41.8125 -33.984375 C 41.8125 -33.984375 41.609375 -34.363281 41.203125 -35.125 C 40.804688 -35.882812 40.207031 -36.832031 39.40625 -37.96875 C 38.601562 -39.101562 37.597656 -40.269531 36.390625 -41.46875 C 35.191406 -42.675781 33.785156 -43.75 32.171875 -44.6875 C 30.566406 -45.625 28.757812 -46.238281 26.75 -46.53125 C 24.75 -46.820312 22.523438 -46.632812 20.078125 -45.96875 Z M 20.078125 -45.96875 "/></g></g></g></g></g><g transform="matrix(1, 0, 0, 1, 37, 39)"><g clip-path="url(#e926b5b5eb)"><g fill="#000000" fill-opacity="1"><g transform="translate(0.746122, 49.926011)"><g><path d="M 34.859375 0 L 27.296875 -18.125 C 24.441406 -17.863281 22.085938 -17.285156 20.234375 -16.390625 C 18.390625 -15.492188 16.894531 -14.410156 15.75 -13.140625 C 14.613281 -11.867188 13.695312 -10.539062 13 -9.15625 C 12.3125 -7.78125 11.703125 -6.488281 11.171875 -5.28125 C 10.546875 -3.632812 9.863281 -2.265625 9.125 -1.171875 C 8.394531 -0.078125 7.269531 0.445312 5.75 0.40625 C 5.570312 0.351562 5.40625 0.304688 5.25 0.265625 C 5.09375 0.222656 4.90625 0.113281 4.6875 -0.0625 C 2.851562 -0.863281 2.113281 -2.804688 2.46875 -5.890625 C 2.65625 -7.359375 2.976562 -9.019531 3.4375 -10.875 C 3.90625 -12.726562 4.546875 -14.722656 5.359375 -16.859375 C 6.554688 -20.066406 7.96875 -23.46875 9.59375 -27.0625 C 11.226562 -30.65625 12.945312 -34.203125 14.75 -37.703125 C 16.5625 -41.203125 18.3125 -44.378906 20 -47.234375 L 20.46875 -47.234375 L 40.484375 0 Z M 27.09375 -18.59375 L 17.265625 -41.484375 C 15.210938 -37.554688 13.148438 -33.414062 11.078125 -29.0625 C 9.003906 -24.71875 7.253906 -20.601562 5.828125 -16.71875 C 5.015625 -14.582031 4.375 -12.597656 3.90625 -10.765625 C 3.445312 -8.941406 3.125 -7.316406 2.9375 -5.890625 C 2.894531 -4.503906 3.007812 -3.332031 3.28125 -2.375 C 3.550781 -1.414062 4.085938 -0.800781 4.890625 -0.53125 C 5.109375 -0.488281 5.269531 -0.441406 5.375 -0.390625 C 5.488281 -0.347656 5.640625 -0.285156 5.828125 -0.203125 C 7.160156 -0.109375 8.160156 -0.570312 8.828125 -1.59375 C 9.492188 -2.625 10.097656 -3.898438 10.640625 -5.421875 C 11.171875 -6.671875 11.789062 -8 12.5 -9.40625 C 13.21875 -10.8125 14.164062 -12.160156 15.34375 -13.453125 C 16.53125 -14.742188 18.0625 -15.859375 19.9375 -16.796875 C 21.8125 -17.734375 24.195312 -18.332031 27.09375 -18.59375 Z M 27.09375 -18.59375 "/></g></g></g></g></g></svg>