<svg xmlns="http://www.w3.org/2000/svg" xmlns:xlink="http://www.w3.org/1999/xlink" width="226" zoomAndPan="magnify" viewBox="0 0 169.5 220.499992" height="294" preserveAspectRatio="xMidYMid meet" version="1.0"><defs><g/><clipPath id="f9fc731ddc"><path d="M 0 0.0742188 L 169 0.0742188 L 169 219.925781 L 0 219.925781 Z M 0 0.0742188 " clip-rule="nonzero"/></clipPath></defs><g clip-path="url(#f9fc731ddc)"><path fill="#ffffff" d="M 0 0.0742188 L 169 0.0742188 L 169 219.925781 L 0 219.925781 Z M 0 0.0742188 " fill-opacity="1" fill-rule="nonzero"/></g><g fill="#000000" fill-opacity="1"><g transform="translate(29.733102, 122.436548)"><g><path d="M 34.53125 -79.09375 C 29.625 -77.707031 25.597656 -75.328125 22.453125 -71.953125 C 19.304688 -68.578125 16.945312 -64.625 15.375 -60.09375 C 13.800781 -55.5625 12.953125 -50.835938 12.828125 -45.921875 C 12.710938 -41.015625 13.195312 -36.375 14.28125 -32 C 15.507812 -27.625 17.40625 -23.34375 19.96875 -19.15625 C 22.539062 -14.976562 25.628906 -11.316406 29.234375 -8.171875 C 32.847656 -5.023438 36.859375 -2.800781 41.265625 -1.5 C 45.679688 -0.195312 50.347656 -0.195312 55.265625 -1.5 C 59.554688 -2.644531 63.140625 -4.578125 66.015625 -7.296875 C 68.898438 -10.023438 71.1875 -13.25 72.875 -16.96875 C 74.5625 -20.695312 75.675781 -24.632812 76.21875 -28.78125 L 76.21875 -14.15625 C 71 -7.5625 64.085938 -3.148438 55.484375 -0.921875 C 49.960938 0.691406 44.550781 1.132812 39.25 0.40625 C 33.957031 -0.320312 29.046875 -2.03125 24.515625 -4.71875 C 19.992188 -7.40625 16.0625 -10.878906 12.71875 -15.140625 C 9.382812 -19.398438 6.945312 -24.253906 5.40625 -29.703125 C 4.03125 -35.148438 3.722656 -40.539062 4.484375 -45.875 C 5.253906 -51.207031 6.960938 -56.195312 9.609375 -60.84375 C 12.253906 -65.488281 15.671875 -69.457031 19.859375 -72.75 C 24.046875 -76.050781 28.863281 -78.429688 34.3125 -79.890625 C 39.445312 -81.273438 44.03125 -81.867188 48.0625 -81.671875 C 52.09375 -81.484375 55.601562 -80.8125 58.59375 -79.65625 C 61.59375 -78.507812 64.085938 -77.226562 66.078125 -75.8125 C 68.078125 -74.394531 69.554688 -73.144531 70.515625 -72.0625 C 71.472656 -70.988281 71.953125 -70.453125 71.953125 -70.453125 L 71.953125 -58.484375 C 71.953125 -58.484375 71.601562 -59.132812 70.90625 -60.4375 C 70.21875 -61.738281 69.179688 -63.367188 67.796875 -65.328125 C 66.421875 -67.285156 64.695312 -69.300781 62.625 -71.375 C 60.550781 -73.445312 58.132812 -75.289062 55.375 -76.90625 C 52.613281 -78.519531 49.503906 -79.570312 46.046875 -80.0625 C 42.597656 -80.5625 38.757812 -80.238281 34.53125 -79.09375 Z M 34.53125 -79.09375 "/></g></g></g><g fill="#000000" fill-opacity="1"><g transform="translate(64.554069, 153.081163)"><g><path d="M 59.984375 0 L 46.96875 -31.203125 C 42.0625 -30.742188 38.015625 -29.742188 34.828125 -28.203125 C 31.640625 -26.671875 29.066406 -24.8125 27.109375 -22.625 C 25.148438 -20.4375 23.578125 -18.148438 22.390625 -15.765625 C 21.203125 -13.390625 20.144531 -11.164062 19.21875 -9.09375 C 18.144531 -6.25 16.972656 -3.882812 15.703125 -2 C 14.441406 -0.125 12.507812 0.769531 9.90625 0.6875 C 9.59375 0.613281 9.300781 0.535156 9.03125 0.453125 C 8.769531 0.378906 8.445312 0.191406 8.0625 -0.109375 C 4.914062 -1.492188 3.648438 -4.832031 4.265625 -10.125 C 4.566406 -12.664062 5.117188 -15.523438 5.921875 -18.703125 C 6.734375 -21.890625 7.828125 -25.328125 9.203125 -29.015625 C 11.273438 -34.535156 13.710938 -40.382812 16.515625 -46.5625 C 19.316406 -52.738281 22.269531 -58.835938 25.375 -64.859375 C 28.488281 -70.890625 31.503906 -76.363281 34.421875 -81.28125 L 35.234375 -81.28125 L 69.65625 0 Z M 46.625 -32 L 29.703125 -71.375 C 26.171875 -64.625 22.617188 -57.503906 19.046875 -50.015625 C 15.484375 -42.535156 12.472656 -35.457031 10.015625 -28.78125 C 8.628906 -25.09375 7.535156 -21.675781 6.734375 -18.53125 C 5.929688 -15.382812 5.375 -12.582031 5.0625 -10.125 C 4.988281 -7.75 5.179688 -5.734375 5.640625 -4.078125 C 6.097656 -2.429688 7.019531 -1.378906 8.40625 -0.921875 C 8.789062 -0.847656 9.078125 -0.769531 9.265625 -0.6875 C 9.460938 -0.613281 9.710938 -0.5 10.015625 -0.34375 C 12.316406 -0.1875 14.039062 -0.988281 15.1875 -2.75 C 16.34375 -4.519531 17.382812 -6.710938 18.3125 -9.328125 C 19.226562 -11.472656 20.300781 -13.753906 21.53125 -16.171875 C 22.757812 -18.585938 24.390625 -20.910156 26.421875 -23.140625 C 28.453125 -25.367188 31.078125 -27.285156 34.296875 -28.890625 C 37.523438 -30.503906 41.632812 -31.539062 46.625 -32 Z M 46.625 -32 "/></g></g></g></svg>